<?xml version="1.0" standalone="no"?>
<!DOCTYPE svg PUBLIC "-//W3C//DTD SVG 20010904//EN"
 "http://www.w3.org/TR/2001/REC-SVG-20010904/DTD/svg10.dtd">
<svg version="1.0" xmlns="http://www.w3.org/2000/svg"
 width="900.000000pt" height="650.000000pt" viewBox="0 0 900.000000 650.000000"
 preserveAspectRatio="xMidYMid meet">

<g transform="translate(0.000000,650.000000) scale(0.100000,-0.100000)"
fill="#000000" stroke="none">
<path d="M4280 5804 c-14 -2 -65 -9 -115 -15 -368 -44 -758 -190 -1079 -403
-153 -102 -261 -191 -396 -326 -402 -402 -644 -890 -732 -1475 -18 -121 -18
-549 0 -670 88 -585 334 -1080 736 -1480 401 -399 889 -640 1471 -727 121 -18
549 -18 670 0 582 87 1070 328 1471 727 402 400 648 895 736 1480 18 121 18
549 0 670 -61 405 -194 760 -406 1079 -102 153 -191 261 -326 396 -394 394
-868 633 -1437 726 -93 15 -532 29 -593 18z m211 -1450 c8 -9 66 -154 129
-323 l116 -306 264 -6 c146 -4 294 -12 330 -18 696 -124 1106 -578 955 -1059
-34 -107 -96 -205 -194 -303 -175 -176 -405 -291 -703 -351 l-113 -23 -1030 0
-1030 0 -78 23 c-518 150 -782 704 -572 1202 80 192 249 364 440 451 129 58
195 71 395 76 l185 5 -3 297 c-4 291 -4 296 18 324 l21 27 429 0 c382 0 429
-2 441 -16z m1909 -1180 c0 -263 -2 -271 -46 -206 -44 64 -56 256 -24 363 11
39 45 89 61 89 5 0 9 -101 9 -246z m308 -181 c12 -10 24 -30 28 -45 5 -22 0
-34 -25 -59 -25 -25 -37 -30 -59 -25 -15 4 -35 16 -44 28 -55 64 36 155 100
101z m-198 -78 c15 -19 4 -52 -21 -60 -11 -4 -26 -1 -34 5 -15 13 -20 51 -8
63 12 12 50 7 63 -8z m96 -43 c6 -4 17 -18 24 -31 10 -20 9 -27 -7 -50 -24
-32 -58 -38 -84 -15 -50 45 11 133 67 96z m234 -37 c18 -18 25 -36 25 -64 0
-45 -17 -69 -62 -88 -47 -19 -98 3 -119 52 -14 33 -13 40 3 73 32 66 102 78
153 27z m-440 -305 c0 -241 -1 -250 -19 -241 -10 6 -29 34 -42 63 -20 47 -23
68 -23 178 0 94 4 136 17 170 18 45 43 80 59 80 4 0 8 -113 8 -250z"/>
<path d="M3893 4033 c-18 -7 -16 -50 3 -57 9 -3 163 -6 343 -6 241 0 330 3
339 12 17 17 15 45 -4 52 -19 7 -663 7 -681 -1z"/>
<path d="M3367 3150 c-171 -43 -276 -217 -232 -384 37 -141 140 -225 285 -234
100 -5 172 21 240 88 67 68 93 140 88 240 -6 93 -38 160 -103 218 -71 63 -190
93 -278 72z"/>
<path d="M4259 3147 c-247 -70 -320 -365 -132 -537 155 -142 407 -88 495 105
26 58 31 175 9 238 -48 139 -230 234 -372 194z"/>
<path d="M5163 3150 c-139 -29 -243 -159 -243 -302 0 -93 29 -166 90 -228 68
-67 140 -93 240 -88 84 5 137 27 199 83 87 79 119 240 71 354 -26 59 -102 134
-164 161 -52 23 -136 32 -193 20z"/>
<path d="M5813 2864 c-3 -8 -1 -20 4 -25 5 -5 101 -8 234 -7 224 3 224 3 227
26 l3 22 -231 0 c-200 0 -231 -2 -237 -16z"/>
</g>
</svg>
